PathFileType	4	(X/Y/Z)	 s10c0403.trc
DataRate	CameraRate	NumFrames	NumMarkers	Units	OrigDataRate	OrigDataStartFrame	OrigNumFrames
200	200	6	49	mm	200	501	2000
Frame#	Time	racr			lacr			c7			jug			rlel			rdr			llel			ldr			s2			lic			ric			lasi			rasi			rpsi			lpsi			rgt			lgt			rth1			rth2			rth3			rth4			rlfc			rmfc			rsh1			rsh2			rsh3			rsh4			rlmal			rmmal			rcal			rtoe			rmt5			lth1			lth2			lth4			lth3			llfc			lmfc			llmal			lcal			lmt5			lsh1			lsh2			lsh3			lsh4			ltoe			SBIKE			LBIKE			RBIKE			
		X1	Y1	Z1	X2	Y2	Z2	X3	Y3	Z3	X4	Y4	Z4	X5	Y5	Z5	X6	Y6	Z6	X7	Y7	Z7	X8	Y8	Z8	X9	Y9	Z9	X10	Y10	Z10	X11	Y11	Z11	X12	Y12	Z12	X13	Y13	Z13	X14	Y14	Z14	X15	Y15	Z15	X16	Y16	Z16	X17	Y17	Z17	X18	Y18	Z18	X19	Y19	Z19	X20	Y20	Z20	X21	Y21	Z21	X22	Y22	Z22	X23	Y23	Z23	X24	Y24	Z24	X25	Y25	Z25	X26	Y26	Z26	X27	Y27	Z27	X28	Y28	Z28	X29	Y29	Z29	X30	Y30	Z30	X31	Y31	Z31	X32	Y32	Z32	X33	Y33	Z33	X34	Y34	Z34	X35	Y35	Z35	X36	Y36	Z36	X37	Y37	Z37	X38	Y38	Z38	X39	Y39	Z39	X40	Y40	Z40	X41	Y41	Z41	X42	Y42	Z42	X43	Y43	Z43	X44	Y44	Z44	X45	Y45	Z45	X46	Y46	Z46	X47	Y47	Z47	X48	Y48	Z48	X49	Y49	Z49	
501	2.5050	634.473995	1321.563373	19.953474	632.417328	1337.501605	-309.318019	619.706530	1369.474552	-147.289413	617.135751	1223.006695	-150.554025	498.395887	1074.914440	81.570142	615.470436	910.646801	3.364544	547.376777	1102.050653	-452.389751	649.219563	915.575449	-393.249739	98.306626	1162.615958	-156.728303	257.328892	1181.342302	-320.951197	278.851840	1150.150110	-38.355691	274.039225	1092.162398	-302.299720	287.146394	1067.282483	-53.076927	147.351063	1209.152533	-101.917280	150.279558	1226.746647	-215.173062	185.675626	1040.792387	14.412142	145.369194	1055.663941	-363.333539	248.250244	910.868804	21.439333	306.617206	848.573403	-3.919580	323.373404	765.853633	-20.689053	337.058486	868.239571	-13.677326	377.445656	676.522299	-49.670356	354.149558	672.886317	-161.451045	315.773035	578.112943	-11.832986	308.183397	490.807214	-26.521028	259.831571	418.895004	-28.420791	334.981690	484.862059	-53.950280	218.208356	324.301699	-43.399992	244.906544	335.380384	-126.848276	164.449654	308.760649	-92.219012	400.287665	251.990468	-80.859420	313.844253	238.299218	-20.829174	218.908447	945.253741	-393.411021	287.898259	893.321449	-385.932804	314.992642	915.150679	-374.597181	322.865023	811.779343	-388.456620	378.959670	717.893109	-383.361992	373.993305	700.054926	-263.464245	41.669310	543.752326	-379.296891	-17.698778	559.295426	-334.229464	54.684674	396.097895	-394.194496	264.616025	674.159836	-414.495699	208.264951	609.068973	-398.789861	123.252777	581.208540	-393.299875	226.372615	587.016331	-372.239450	123.196292	357.112123	-340.173605	-203.929933	831.707818	-223.499981	-78.073027	82.022466	-423.666705	-102.495458	80.675687	-24.267379	
502	2.5100	635.254591	1320.881182	17.838449	629.481801	1339.660266	-311.368394	618.634429	1370.449130	-148.500020	616.989196	1223.595930	-152.585832	497.924706	1074.991712	79.727054	615.621906	910.251880	2.598572	547.962725	1102.430719	-452.694654	649.179806	915.569865	-393.069280	97.853731	1158.566928	-155.194106	255.673990	1180.117730	-320.287981	279.989944	1147.034878	-37.743451	273.531776	1090.746626	-302.176217	288.233373	1064.229840	-52.830132	147.942282	1204.781584	-99.739992	148.773922	1223.570713	-213.068880	186.830817	1036.725992	15.494261	145.050352	1052.117904	-362.422518	247.035005	906.801052	21.624262	303.557340	842.807195	-4.084810	318.837330	760.155237	-21.051749	334.497374	862.224380	-12.958175	371.912660	670.088551	-50.391303	348.778089	666.966714	-161.761434	311.382900	571.631175	-12.427138	304.195553	484.167594	-27.178361	256.395777	412.001915	-28.787810	330.825005	478.641195	-54.769706	215.178493	317.772636	-43.668779	241.423643	328.488671	-127.201342	161.344387	303.016623	-92.501774	396.504790	242.978979	-81.288945	309.926445	230.581869	-21.162586	221.090487	943.482187	-393.203066	291.538354	893.539175	-385.418508	318.054209	915.943042	-373.706335	329.091403	813.380707	-388.999563	386.037017	721.507579	-384.045867	381.887737	703.007928	-264.331825	46.614839	550.958974	-379.333176	-12.718888	566.989287	-334.079804	59.285432	403.470845	-394.041920	271.084543	678.977382	-415.088491	213.922959	614.588038	-399.340032	128.576639	587.860590	-393.520070	231.841652	592.294461	-372.952314	127.595101	364.422384	-339.813433	-203.897035	831.874142	-223.739742	-78.069352	82.018135	-423.670557	-102.544057	80.634366	-24.316515	
503	2.5150	636.161888	1320.424656	15.469687	626.593477	1341.859838	-313.574941	617.495327	1371.219823	-150.075294	616.850210	1224.121792	-154.655412	497.768291	1075.193053	77.856158	615.809290	910.106384	2.535283	548.561174	1102.799551	-452.933791	649.132462	915.545052	-392.876936	97.789553	1154.400500	-153.480820	253.046917	1178.185316	-317.562458	281.269588	1144.113163	-37.034222	273.041226	1089.381985	-302.121939	289.183106	1061.047594	-52.608753	148.261811	1200.873462	-97.603728	147.166289	1221.436160	-211.390379	187.743727	1033.833912	16.449474	144.551800	1048.703498	-361.831130	245.732584	902.697347	22.003561	300.287269	837.155368	-4.372959	314.032917	754.575504	-21.405786	331.956002	856.150401	-12.595215	366.174274	663.819189	-50.875967	343.366853	660.865108	-161.843397	306.528778	565.061781	-12.952154	299.899695	477.660579	-27.821810	252.656747	405.070397	-29.198729	326.335644	472.406844	-55.598935	211.767928	311.457278	-43.873868	236.540245	321.150999	-126.690616	158.019566	297.518202	-92.720553	392.275919	234.197439	-81.699429	305.587020	223.034850	-21.548306	223.412029	942.098948	-392.880612	295.344224	894.371231	-385.385811	321.191622	917.617231	-373.742916	335.394673	815.437348	-389.572887	393.184942	725.651210	-384.894424	389.849893	706.216777	-265.053663	51.972441	558.211855	-379.301460	-7.398161	574.408424	-333.947855	64.178947	410.595010	-393.830020	277.724197	683.724799	-415.643116	219.837060	620.089492	-399.831829	134.209487	594.404649	-393.694025	237.589311	597.522904	-373.479001	132.312772	371.199389	-339.333021	-203.894799	831.860153	-223.739736	-78.073304	82.009661	-423.742743	-102.561916	80.638207	-24.354449	
504	2.5200	637.232032	1320.224550	12.786417	623.716421	1344.104605	-315.844418	616.354258	1372.122829	-151.652205	616.584311	1224.702086	-156.919699	497.884239	1075.572875	75.960538	616.065819	909.986634	2.374074	549.185796	1103.144292	-453.260801	649.071661	915.511504	-392.663228	102.292751	1147.282962	-153.280553	251.294363	1177.038173	-316.794169	282.551788	1141.201842	-36.464901	272.606851	1088.024466	-302.069838	290.174638	1058.127977	-52.276927	147.983378	1198.077403	-97.531043	146.981875	1218.723401	-209.639022	188.378337	1031.253385	17.349162	144.254270	1045.220934	-361.305943	244.119514	898.665389	22.352431	297.159855	831.946956	-4.693558	308.972433	749.146581	-21.621821	329.311226	850.239187	-12.586642	360.087350	657.697500	-51.135231	338.082629	655.049645	-161.547790	301.357257	558.611591	-13.462187	295.272675	471.059414	-28.541061	248.630366	398.199568	-29.707317	321.523131	466.109345	-56.524374	208.037068	305.274115	-44.284332	232.608781	314.705588	-127.163697	154.215614	291.970682	-92.859270	387.770902	225.757803	-82.095667	300.857890	215.946203	-21.971406	225.730275	941.061570	-392.425665	299.205724	895.678186	-385.415702	324.346481	919.567991	-373.676541	341.766644	818.133333	-390.154450	400.438771	730.315663	-385.970163	397.711542	709.639101	-265.734384	57.652816	565.179341	-379.248742	-1.789423	581.773253	-334.029868	69.473526	417.604144	-393.574615	284.542498	688.625729	-416.123080	226.804495	626.149377	-400.925269	140.166683	600.839894	-393.806120	243.679180	603.011696	-373.884649	137.521728	378.091993	-339.035626	-203.757490	832.063206	-223.824430	-78.089078	82.021549	-423.723307	-102.585881	80.626089	-24.352941	
505	2.5250	638.418729	1320.181203	9.995354	620.915624	1346.347093	-318.151537	615.229265	1372.931800	-153.599511	616.237460	1225.225009	-159.250838	498.308965	1076.192895	74.089088	616.346223	909.909931	2.128877	549.783453	1103.496297	-453.557677	649.017930	915.498487	-392.452798	95.058330	1147.949491	-150.748134	249.475043	1176.085198	-316.126409	283.807918	1138.751736	-35.269177	272.240794	1086.849713	-302.023703	291.138231	1055.322205	-51.964892	148.413907	1194.596905	-95.535781	146.320540	1215.801805	-207.482531	189.188254	1028.546176	18.314542	143.755445	1041.962023	-360.667085	242.452753	894.389419	22.644076	294.075551	827.134612	-3.961190	303.952028	743.920292	-21.767411	326.413001	844.442345	-12.128866	353.688329	651.738750	-51.297791	331.748382	649.098733	-161.454136	295.612580	552.139771	-13.737481	290.230372	464.722484	-29.312759	244.197458	391.523106	-30.188947	316.346670	459.957170	-57.429283	203.899847	299.326457	-44.553999	228.157645	308.287058	-127.312063	150.054914	287.070503	-93.230633	382.818336	217.807036	-82.436390	295.712931	208.917105	-22.328268	228.193611	940.583194	-391.838927	303.028850	897.469250	-385.436067	327.486288	921.905934	-373.513689	347.931059	821.292431	-390.914176	407.392835	734.973313	-386.742367	404.946651	713.136132	-266.621226	63.618438	571.816398	-379.198454	4.236733	588.391153	-333.602063	75.176628	424.320475	-393.324800	291.531846	693.552491	-416.585629	232.486293	631.070196	-400.515959	146.442098	607.068265	-393.910441	250.087767	608.272157	-374.349022	143.122562	384.796275	-338.713852	-203.871504	831.840438	-223.694903	-78.109509	82.000833	-423.723213	-102.591689	80.610802	-24.368315	
506	2.5300	639.716572	1320.269137	7.018557	618.239869	1348.579539	-320.512353	614.026237	1373.604265	-155.586577	615.849043	1225.838849	-161.583142	499.055574	1076.836921	72.267496	616.654886	909.910261	1.929835	550.258443	1103.848966	-453.839484	648.966659	915.494185	-392.317773	97.217643	1143.529629	-149.860465	247.715224	1175.189045	-315.487111	285.249961	1135.879934	-35.368790	271.821549	1085.634310	-301.909015	292.208832	1052.739730	-51.611344	148.613270	1191.495740	-93.698784	145.652901	1213.117345	-205.346165	189.808082	1025.588189	18.614879	143.003276	1039.127048	-360.130183	239.514934	890.531105	22.385003	290.747217	822.245032	-3.698935	298.789132	738.898742	-21.800076	323.367561	838.885175	-11.965516	346.847232	646.077398	-51.189535	324.107189	643.397508	-161.085526	289.932766	545.878495	-14.136410	285.246851	458.534527	-29.723246	239.451312	384.915865	-30.770820	310.581451	453.948503	-58.423469	199.415853	293.502298	-44.878923	223.395340	302.187322	-127.804391	145.441229	281.858151	-93.479335	377.420697	210.034665	-82.759246	290.292044	202.294484	-22.640917	230.283260	940.198278	-390.297992	306.803140	899.614181	-385.470690	330.592175	924.577879	-373.093210	353.867715	824.744244	-391.600803	414.580988	739.852165	-387.331906	413.746909	717.135078	-266.726369	70.096017	578.231529	-379.108736	10.755797	594.987403	-333.462878	81.598122	430.871038	-393.297413	298.676433	698.529985	-416.916308	239.889376	637.169779	-401.430016	152.962557	613.121634	-393.995830	256.544541	613.373797	-374.687927	149.017201	390.874494	-338.345105	-203.875935	831.844778	-223.689708	-78.086453	81.985803	-423.735820	-102.578179	80.607077	-24.355850	
